<svg width="40" height="40" viewBox="0 0 40 40" fill="none" xmlns="http://www.w3.org/2000/svg">
<path d="M8.43579 0H31.5642C36.2232 0 40 3.77682 40 8.43579V31.5642C40 36.2232 36.2232 40 31.5642 40H8.43579C3.77683 40 0 36.2232 0 31.5642V8.43579C0 3.77682 3.77683 0 8.43579 0Z" fill="#191A1A"/>
<path d="M29.3701 19.2769C27.9274 16.9942 25.3818 15.4772 22.4831 15.4772C19.5985 15.4772 17.7652 16.8961 15.9022 18.8668L15.902 18.8665L15.0038 19.8204V12.1403C15.0038 9.95606 13.3441 8.05872 11.1803 7.97552C11.1278 7.97205 11.0734 7.97045 11.0209 7.97045V26.1823L12.6518 28.1084L14.6782 25.9447C14.6782 25.9447 19.0433 21.2809 19.0585 21.2623C20.0327 20.2236 20.9983 19.4564 22.4985 19.4564C23.9868 19.4564 25.2938 20.2353 26.0338 21.4065C26.441 22.0513 26.6754 22.8151 26.6754 23.6348C26.6754 25.5287 25.4127 27.1308 23.6818 27.6418C23.0284 27.8759 22.2577 28.0135 21.3703 28.0525C20.9868 28.0676 20.6185 28.0695 20.3044 28.0677L16.1142 28.0474C15.9598 28.0474 15.8054 28.0455 15.651 28.0455C15.3524 28.0439 15.0537 28.0405 14.755 28.0405H13.1953C13.0086 28.0405 12.8254 28.0642 12.6521 28.1084C11.7187 28.3511 11.0211 29.2066 11.0211 30.2146V32.0271L19.0063 31.9983C19.3761 31.9983 19.7428 32.0085 20.1111 32.0154H20.1535C20.5015 32.0223 20.8527 32.029 21.2057 32.029C22.2665 32.029 23.5071 31.9714 24.6679 31.5573C25.1007 31.4045 25.5148 31.2178 25.9103 31.0023C28.6954 29.7093 30.6231 26.8884 30.6231 23.618C30.6231 22.7015 30.4722 21.8191 30.1903 20.9977C29.9842 20.3887 29.7077 19.8116 29.3701 19.2769Z" fill="white"/>
</svg>
